<svg xmlns="http://www.w3.org/2000/svg" width="18.089" height="16.841" viewBox="0 0 18.089 16.841">
  <path id="Path_144" data-name="Path 144" d="M125.03,131.671a4.31,4.31,0,0,1-3,2.156c-.8.17-1.841.305-5.35-1.149-4.489-1.86-7.379-6.421-7.6-6.717a8.724,8.724,0,0,1-1.814-4.607,4.876,4.876,0,0,1,1.562-3.717,2.219,2.219,0,0,1,1.562-.548c.189,0,.359.01.512.017.449.019.674.046.97.754.368.888,1.266,3.08,1.373,3.3a.909.909,0,0,1,.065.827,2.64,2.64,0,0,1-.494.7c-.225.26-.439.458-.664.737-.206.242-.439.5-.179.951a13.557,13.557,0,0,0,2.478,3.08,11.23,11.23,0,0,0,3.582,2.209.966.966,0,0,0,1.077-.17,18.486,18.486,0,0,0,1.193-1.581.852.852,0,0,1,1.1-.332c.412.143,2.595,1.222,3.043,1.445s.745.332.853.521A3.8,3.8,0,0,1,125.03,131.671Z" transform="translate(-107.264 -117.088)" fill="#6b6b6b"/>
</svg>
