<svg id="email" xmlns="http://www.w3.org/2000/svg" width="24.809" height="17.056" viewBox="0 0 24.809 17.056">
  <g id="Group_412" data-name="Group 412" transform="translate(16.445 3.144)">
    <g id="Group_411" data-name="Group 411" transform="translate(0 0)">
      <path id="Path_2040" data-name="Path 2040" d="M339.392,150.407l8.364,5.287V144.9Z" transform="translate(-339.392 -144.896)" fill="#6b6b6b"/>
    </g>
  </g>
  <g id="Group_414" data-name="Group 414" transform="translate(0 3.144)">
    <g id="Group_413" data-name="Group 413" transform="translate(0 0)">
      <path id="Path_2041" data-name="Path 2041" d="M0,144.9v10.8l8.364-5.287Z" transform="translate(0 -144.896)" fill="#6b6b6b"/>
    </g>
  </g>
  <g id="Group_416" data-name="Group 416" transform="translate(0.047 0)">
    <g id="Group_415" data-name="Group 415" transform="translate(0 0)">
      <path id="Path_2042" data-name="Path 2042" d="M24.172,80H2.464a1.531,1.531,0,0,0-1.5,1.32l12.358,8.142L25.676,81.32A1.531,1.531,0,0,0,24.172,80Z" transform="translate(-0.96 -80)" fill="#6b6b6b"/>
    </g>
  </g>
  <g id="Group_418" data-name="Group 418" transform="translate(0.05 9.59)">
    <g id="Group_417" data-name="Group 417" transform="translate(0 0)">
      <path id="Path_2043" data-name="Path 2043" d="M16,277.922l-2.194,1.445a.779.779,0,0,1-.853,0l-2.194-1.447-9.734,6.157a1.529,1.529,0,0,0,1.5,1.309H24.233a1.529,1.529,0,0,0,1.5-1.309Z" transform="translate(-1.024 -277.92)" fill="#6b6b6b"/>
    </g>
  </g>
</svg>
