<svg xmlns="http://www.w3.org/2000/svg" width="721.045" height="600.623" viewBox="0 0 721.045 600.623">
  <g id="Group_376" data-name="Group 376" transform="translate(411.002 -1287)">
    <path id="Path_1" data-name="Path 1" d="M828.859,559.046v74.9h-.034v-.033l-20.448-24.7-19.426-23.548L768.5,560.919,667.329,438.48a28.1,28.1,0,0,0-49.751,17.926v177.54H597.13v-240.4a41.311,41.311,0,0,1,73.151-26.318L768.5,486.058l3.372,4.089V295.636l20.443-15.571V514.85l16.054,19.421V220.192l20.448,21.843V559.013Z" transform="translate(-781.701 1066.808)" fill="#dc7236"/>
    <path id="Path_2" data-name="Path 2" d="M879.563,294.862V641.225h20.448V279.286Z" transform="translate(-816.361 1059.553)" fill="#dc7236"/>
    <g id="Group_395" data-name="Group 395" transform="translate(-411.002 1744.104)">
      <path id="Path_3" data-name="Path 3" d="M363.23,753.8v57.551q0,5.584,6.687,6.247a69.923,69.923,0,0,0,14.716-.224,14.582,14.582,0,0,0,10.709-6.023,25.484,25.484,0,0,0,3.458-8.024h3.239q-1.342,6.248-4.127,18.958-4.905,0-14.726-.224t-14.726-.22q-4.905,0-14.726.22t-14.716.224v-3.344h1.557q8.368,0,8.364-7.47V754.151q0-6.353-8.364-6.357h-1.557V744.45q3.009,0,8.865.224t8.75.225q2.9,0,8.531-.225t8.416-.224v3.344H370.8a12.118,12.118,0,0,0-5.354.783,5.451,5.451,0,0,0-2.226,5.254" transform="translate(-339.018 -741.627)" fill="#fff"/>
      <path id="Path_4" data-name="Path 4" d="M524.518,744.456l49.636,55.884.225-.224V758.294q0-10.508-9.706-10.508h-2.46v-3.344q2.684,0,7.862.224c3.463.148,6.042.224,7.752.224q2.345,0,6.912-.224t6.806-.224v3.344h-1.672a9.139,9.139,0,0,0-6.687,2.12,16.813,16.813,0,0,0-3.233,12.046V812.7a74.288,74.288,0,0,0,.669,11.268h-4.237l-57.441-64V805.91a17.843,17.843,0,0,0,2.116,10.264,10.078,10.078,0,0,0,8.364,2.785h1.91V822.3q-2.345,0-7.165-.225t-7.246-.22q-2.46,0-7.528.22t-7.642.225v-3.344h1.557q10.03,0,10.031-14.167V757.835a9.348,9.348,0,0,0-3.062-7.246,10.236,10.236,0,0,0-7.083-2.79h-1.433v-3.344q2.114,0,6.41.224t6.415.225q1.672,0,4.963-.225t4.963-.224" transform="translate(-358.995 -741.657)" fill="#fff"/>
      <path id="Path_5" data-name="Path 5" d="M654.809,794.371l-3.568,11.6a79.866,79.866,0,0,0-2.459,8.693q0,3.912,8.368,3.907h1.228v3.344q-8.922-.444-13.493-.444-4.017,0-12.046.444v-3.344h.669a9.654,9.654,0,0,0,9.706-7.255l17.845-51.194q1.782-4.911,4.127-13.852a47.267,47.267,0,0,0,10.15-4.776,3.592,3.592,0,0,1,.893-.224.866.866,0,0,1,.779.334q.339,1,1,2.789l20.539,58.335q1.342,4.017,4.132,11.377a7.237,7.237,0,0,0,7.361,4.461h.669v3.344q-10.03-.444-15.395-.444t-16.718.444v-3.344h1.228q6.911,0,6.911-3.239a40.116,40.116,0,0,0-2.226-8.024l-4.351-12.939Zm22.979-6.247-10.264-31.558h-.22L656.93,788.123Z" transform="translate(-375.073 -741.266)" fill="#fff"/>
      <path id="Path_6" data-name="Path 6" d="M828.393,765.789l-3.344.224Q820.583,747.5,799.17,747.5a27.5,27.5,0,0,0-22.421,9.705,35.962,35.962,0,0,0-7.361,23.644,45.434,45.434,0,0,0,7.027,25.879A26.671,26.671,0,0,0,799.5,818.885a21.832,21.832,0,0,0,12.376-2.116V798.589q0-5.684-8.478-5.689h-1.433v-3.344q11.158.449,16.718.444,4.905,0,14.946-.444V792.9H832.2q-6.023,0-6.023,5.689v16.951l2.57,1.433v2.006a115.96,115.96,0,0,1-31.123,4.776A44.7,44.7,0,0,1,766.4,812.937a39.679,39.679,0,0,1-12.6-31.009,35.771,35.771,0,0,1,13.852-29.446,48.2,48.2,0,0,1,30.779-9.93,71.761,71.761,0,0,1,16.063,2.006q4.127,1,12.605,2.121a100.941,100.941,0,0,0,1.337,19.068" transform="translate(-389.94 -741.438)" fill="#fff"/>
      <path id="Path_7" data-name="Path 7" d="M898.9,748.458V809.7a8.7,8.7,0,0,0,3.129,8.025,16.078,16.078,0,0,0,7.47,1.227h1.782v3.344q-2.785,0-8.417-.224t-8.531-.22q-3.014,0-9.146.22t-9.372.224v-3.344H877.6a7.408,7.408,0,0,0,4.776-1.227,10.177,10.177,0,0,0,2.23-7.8V756.6a11.358,11.358,0,0,0-1.671-7.251,8.222,8.222,0,0,0-5.8-1.562H875.8v-3.344q1.781,0,7.193.225t8.416.224q3.014,0,8.425-.224t7.862-.225q26.208,0,26.208,21.308a21.307,21.307,0,0,1-6.018,15.672,24.269,24.269,0,0,1-15.509,6.969q-2.45.224-8.922.224v-3.344H905.8a10.947,10.947,0,0,0,9.92-5.354,25.123,25.123,0,0,0,3.257-13.722q0-17.73-16.842-17.735Z" transform="translate(-404.911 -741.642)" fill="#fff"/>
      <path id="Path_8" data-name="Path 8" d="M992.5,794.372l-3.568,11.6a79.88,79.88,0,0,0-2.46,8.693q0,3.912,8.368,3.907h1.228v3.344q-8.922-.444-13.493-.444-4.017,0-12.046.444v-3.344h.669a9.654,9.654,0,0,0,9.706-7.255l17.845-51.194q1.782-4.911,4.127-13.852a47.256,47.256,0,0,0,10.15-4.776,3.627,3.627,0,0,1,.893-.225.864.864,0,0,1,.779.335q.338,1,1,2.789l20.539,58.335q1.342,4.017,4.131,11.377a7.236,7.236,0,0,0,7.361,4.461h.668v3.344q-10.03-.444-15.395-.444t-16.717.444v-3.344h1.228q6.916,0,6.912-3.239a40.192,40.192,0,0,0-2.226-8.024l-4.352-12.939Zm22.979-6.247-10.264-31.558h-.22l-10.375,31.558Z" transform="translate(-416.525 -741.267)" fill="#fff"/>
      <path id="Path_9" data-name="Path 9" d="M1113.353,753.8v57.551q0,5.584,6.687,6.247a69.92,69.92,0,0,0,14.716-.224,14.587,14.587,0,0,0,10.708-6.023,25.5,25.5,0,0,0,3.459-8.024h3.233q-1.343,6.248-4.122,18.958-4.906,0-14.726-.224t-14.726-.22q-4.91,0-14.726.22t-14.717.224v-3.344h1.562q8.369,0,8.364-7.47V754.151q0-6.353-8.364-6.357h-1.562V744.45q3.014,0,8.87.224t8.751.225q2.9,0,8.53-.225t8.416-.224v3.344h-2.785a12.126,12.126,0,0,0-5.354.784,5.448,5.448,0,0,0-2.226,5.254" transform="translate(-431.112 -741.627)" fill="#fff"/>
    </g>
    <g id="Group_583" data-name="Group 583" transform="translate(-224.717 1857.162)">
      <path id="Path_10" data-name="Path 10" d="M549.093,900.054V898.8h.583q3.09,0,3.09-2.389V874.52q0-2.388-3.09-2.388h-.583V870.88c.583,0,1.615,0,3.09.081s2.613.082,3.42.082,2.006,0,3.506-.082,2.56-.081,3.181-.081a12.187,12.187,0,0,1,7.475,1.911,5.532,5.532,0,0,1,2.169,4.633q0,5.393-7.6,6.768v.086a10.222,10.222,0,0,1,6.353,1.8,6.59,6.59,0,0,1,2.966,5.68,7.4,7.4,0,0,1-2.9,5.827,10.448,10.448,0,0,1-6.959,2.446c-.64,0-1.791-.029-3.444-.082s-2.942-.086-3.864-.086-2.25.029-3.988.086-2.866.081-3.406.081m9.023-27.655v11.282h2.04q6.209,0,6.185-5.426a5.115,5.115,0,0,0-5.732-5.851Zm0,12.787v9.82a4.19,4.19,0,0,0,.688,2.866,4.772,4.772,0,0,0,3.071.663,5.771,5.771,0,0,0,4.408-1.911,6.635,6.635,0,0,0,1.777-4.7,6.487,6.487,0,0,0-2.05-5.134,7.827,7.827,0,0,0-5.22-1.629Z" transform="translate(-549.088 -870.259)" fill="#fff"/>
      <path id="Path_11" data-name="Path 11" d="M608.27,890.241V875.157a3.071,3.071,0,0,0-.956-2.67,4.717,4.717,0,0,0-2.254-.378h-.5v-1.251c.53,0,1.533,0,3.009.082s2.684.081,3.63.081,2.078,0,3.468-.081,2.326-.082,2.8-.082v1.251h-.478a4.864,4.864,0,0,0-2.3.377,2.956,2.956,0,0,0-1.046,2.67v14.41q0,8.985,7.938,8.984t7.938-9.152V875.157a3.07,3.07,0,0,0-.956-2.67,4,4,0,0,0-2.049-.377h-.835v-1.251c.559,0,1.4,0,2.527.082s1.973.081,2.531.081,1.366,0,2.441-.081,1.877-.082,2.388-.082v1.251h-.879a3.135,3.135,0,0,0-1.753.377,3.215,3.215,0,0,0-.917,2.67v13.326q0,12.151-11.239,12.156a14.9,14.9,0,0,1-9.233-2.388,9.552,9.552,0,0,1-3.253-8.02" transform="translate(-555.887 -870.217)" fill="#fff"/>
      <path id="Path_12" data-name="Path 12" d="M665.222,900.03v-1.256h.588q3.09,0,3.085-2.389v-21.89q0-2.388-3.085-2.388h-.588v-1.251c.5,0,1.476,0,2.923.081s2.531.082,3.262.082,1.8,0,3.32-.082,2.6-.081,3.243-.081v1.251h-.588q-3.085,0-3.09,2.388v21.89q0,2.388,3.09,2.389h.588v1.251c-.669,0-1.767-.029-3.281-.082s-2.627-.086-3.32-.086-1.805.028-3.238.086-2.388.082-2.909.082" transform="translate(-563.34 -870.234)" fill="#fff"/>
      <path id="Path_13" data-name="Path 13" d="M714.383,874.386v21.532c0,1.395.831,2.178,2.5,2.345a26.145,26.145,0,0,0,5.517-.085,5.454,5.454,0,0,0,4.012-2.26,9.564,9.564,0,0,0,1.29-3h1.214q-.5,2.345-1.547,7.1-1.834,0-5.512-.082c-2.45-.053-4.3-.086-5.517-.086s-3.062.028-5.517.086-4.3.082-5.512.082v-1.232h.583q3.133,0,3.134-2.8V874.492q0-2.388-3.134-2.388h-.583v-1.252c.75,0,1.858,0,3.32.082s2.555.082,3.276.082,1.791,0,3.2-.082,2.455-.082,3.157-.082V872.1h-1.046a4.628,4.628,0,0,0-2.006.286,2.063,2.063,0,0,0-.831,1.968" transform="translate(-568.262 -870.24)" fill="#fff"/>
      <path id="Path_14" data-name="Path 14" d="M758.077,900.05v-1.256h.583q3.09,0,3.09-2.389v-21.89q0-2.388-3.09-2.388h-.583v-1.251c.306,0,1.247,0,2.813.081s2.866.082,3.864.082,2.211,0,3.7-.082,2.5-.081,3.028-.081a17.637,17.637,0,0,1,12.114,3.945,13.373,13.373,0,0,1,4.47,10.546,14.187,14.187,0,0,1-4.576,10.675,13.991,13.991,0,0,1-10.923,3.988q-2.966-.167-7.6-.167-1.624,0-4.089.086c-1.643.052-2.579.081-2.8.081m9.023-27.445v22.64a2.965,2.965,0,0,0,1.213,2.866,7.268,7.268,0,0,0,3.133.477,9.793,9.793,0,0,0,8.063-3.754,13.534,13.534,0,0,0,2.713-8.6q0-13.78-12.275-13.785-.544,0-2.837.21" transform="translate(-574.738 -870.254)" fill="#fff"/>
      <path id="Path_15" data-name="Path 15" d="M818.922,900.03v-1.256h.583q3.09,0,3.09-2.389v-21.89q0-2.388-3.09-2.388h-.583v-1.251c.779,0,2.388,0,4.848.081s4.3.082,5.555.082,3.085,0,5.6-.082,4.2-.081,5.092-.081a60.964,60.964,0,0,0,.081,6.386l-1.251.334a6.965,6.965,0,0,0-.955-3.468,5.107,5.107,0,0,0-4.136-1.433h-5.8v10.948h4.967a2.937,2.937,0,0,0,2.512-1,5.738,5.738,0,0,0,.788-2.67h1.251q-.124,2.422-.124,4.886,0,2.388.124,4.777l-1.251.253a10.132,10.132,0,0,0-.621-3.014,2.824,2.824,0,0,0-2.636-1.122h-5.006v9.734a2.264,2.264,0,0,0,1.538,2.388,12.758,12.758,0,0,0,3.554.33,14.223,14.223,0,0,0,5.636-.75,6.348,6.348,0,0,0,2.866-4.346l1.166.3q-.955,3.883-1.433,6.64-1.211,0-5.221-.082c-2.675-.053-4.681-.086-6.013-.086s-3.391.028-6.081.086-4.361.082-5.029.082" transform="translate(-582.202 -870.234)" fill="#fff"/>
      <path id="Path_16" data-name="Path 16" d="M875.686,896.523V875.3a3.133,3.133,0,0,0-1-2.718,3.341,3.341,0,0,0-1.963-.478h-.75v-1.251c.329,0,1.256,0,2.775.081s2.751.082,3.7.082c.86,0,2.021,0,3.468-.082s2.532-.081,3.253-.081q9.945,0,9.94,7.351a7.747,7.747,0,0,1-5.8,7.352l7.164,10.689a6.062,6.062,0,0,0,1.691,1.8,6.143,6.143,0,0,0,2.36.711v1.251c-.444,0-1.118-.029-2.025-.082s-1.59-.086-2.063-.086-1.07.029-1.944.086-1.543.082-1.987.082a121.246,121.246,0,0,1-8.688-13.536h-2.751v8.96a3.343,3.343,0,0,0,1,2.866,4.558,4.558,0,0,0,2.422.477h.754v1.251q-1.175,0-3.572-.081c-1.6-.053-2.809-.086-3.616-.086-.668,0-1.667.029-3,.086s-2.354.081-3.047.081v-1.251h.75c1.973,0,2.966-.755,2.966-2.254m5.35-23.978V885h2.04a6.9,6.9,0,0,0,4.848-1.48,6.686,6.686,0,0,0,1.586-5.04,5.689,5.689,0,0,0-6.1-6.1l-2.388.167" transform="translate(-588.714 -870.237)" fill="#fff"/>
      <path id="Path_17" data-name="Path 17" d="M947.192,876.751l-1.17.21a6.814,6.814,0,0,0-1.5-3.673,4.3,4.3,0,0,0-3.42-1.629,5.058,5.058,0,0,0-3.821,1.371,5.345,5.345,0,0,0-1.337,3.888,5.526,5.526,0,0,0,3.257,4.72q3,1.671,6.013,3.381a8.089,8.089,0,0,1,3.258,6.769,7.943,7.943,0,0,1-3.048,6.557,11.036,11.036,0,0,1-7.063,2.217,14.853,14.853,0,0,1-6.64-1.882c-.058-.726-.167-1.792-.334-3.2s-.3-2.455-.377-3.157l1.17-.248a8.907,8.907,0,0,0,1.911,4.638,5.768,5.768,0,0,0,4.551,2,5.346,5.346,0,0,0,3.673-1.3,4.4,4.4,0,0,0,1.461-3.467,5.732,5.732,0,0,0-3.176-4.972l-5.932-3.425a8.956,8.956,0,0,1-.63-13.092,9.556,9.556,0,0,1,6.687-2.317q1.17,0,6.013.625a47.877,47.877,0,0,0,.421,5.971" transform="translate(-595.976 -870.14)" fill="#fff"/>
    </g>
  </g>
</svg>
