<?xml version="1.0" encoding="utf-8"?>
<!-- Generator: Adobe Illustrator 24.0.1, SVG Export Plug-In . SVG Version: 6.00 Build 0)  -->
<svg version="1.1" id="Layer_1" xmlns="http://www.w3.org/2000/svg" xmlns:xlink="http://www.w3.org/1999/xlink" x="0px" y="0px"
	 viewBox="0 0 32 32" style="enable-background:new 0 0 32 32;" xml:space="preserve">
<style type="text/css">
	.st0{fill:#8C8C8C;}
</style>
<g id="Group_166" transform="translate(0)">
	<path id="Path_344" class="st0" d="M24.4,5.9c-1,0-1.9,0.8-1.9,1.9c0,1,0.8,1.9,1.9,1.9c1,0,1.9-0.8,1.9-1.9
		C26.3,6.7,25.5,5.9,24.4,5.9C24.4,5.9,24.4,5.9,24.4,5.9z M16.1,8.3c-4.4,0-7.9,3.5-7.9,7.9c0,4.4,3.5,7.9,7.9,7.9
		c4.4,0,7.9-3.5,7.9-7.9C23.9,11.8,20.4,8.3,16.1,8.3L16.1,8.3z M16.1,21.3c-2.8,0-5.1-2.3-5.1-5.1s2.3-5.1,5.1-5.1
		c2.8,0,5.1,2.3,5.1,5.1C21.1,19,18.8,21.3,16.1,21.3L16.1,21.3z M32,9.6C32,4.3,27.7,0,22.4,0H9.6C4.3,0,0,4.3,0,9.6c0,0,0,0,0,0
		v12.7C0,27.7,4.3,32,9.6,32c0,0,0,0,0,0h12.7c5.3,0,9.6-4.3,9.6-9.6c0,0,0,0,0,0L32,9.6z M29,22.4c0,3.7-3,6.6-6.6,6.6c0,0,0,0,0,0
		H9.6C6,29,3,26,3,22.4l0,0V9.6C3,6,6,3,9.6,3h12.7C26,3,29,6,29,9.6L29,22.4z"/>
</g>
</svg>
