<svg xmlns="http://www.w3.org/2000/svg" width="389.912" height="324.768" viewBox="0 0 389.912 324.768">
  <g id="Group_404" data-name="Group 404" transform="translate(411.001 -1287)">
    <path id="Path_1" data-name="Path 1" d="M722.426,403.421v40.5h-.017v-.017l-11.057-13.36-10.5-12.732-11.057-13.377-54.7-66.206a15.2,15.2,0,0,0-26.9,9.693v96.006H597.134V313.914a22.338,22.338,0,0,1,39.555-14.231L689.8,363.941l1.825,2.211V260.987l11.053-8.421V379.524l8.678,10.5V220.192l11.057,11.821V403.4Z" transform="translate(-885.689 1066.808)" fill="#dc7236"/>
    <path id="Path_2" data-name="Path 2" d="M879.563,287.707V475h11.063V279.286Z" transform="translate(-1034.146 1035.746)" fill="#dc7236"/>
    <g id="Group_421" data-name="Group 421" transform="translate(-411.001 1534.181)">
      <path id="Path_3" data-name="Path 3" d="M352.108,749.5v31.137q0,3.018,3.618,3.379a37.8,37.8,0,0,0,7.96-.121,7.885,7.885,0,0,0,5.789-3.258,13.781,13.781,0,0,0,1.868-4.339h1.75q-.724,3.379-2.231,10.252-2.652,0-7.963-.121t-7.96-.118q-2.652,0-7.963.118t-7.957.121v-1.811h.842q4.523,0,4.523-4.036V749.692q0-3.434-4.523-3.437h-.842v-1.811q1.629,0,4.794.121t4.734.121q1.568,0,4.613-.121t4.552-.121v1.811H356.2a6.559,6.559,0,0,0-2.883.424,2.946,2.946,0,0,0-1.2,2.834" transform="translate(-339.019 -742.94)" fill="#58595b"/>
      <path id="Path_4" data-name="Path 4" d="M514.047,744.445l26.838,30.217.121-.121V751.927q0-5.671-5.247-5.671H534.43v-1.811q1.441,0,4.252.121t4.192.121q1.269,0,3.748-.121t3.682-.121v1.811H549.4a4.945,4.945,0,0,0-3.618,1.153,9.09,9.09,0,0,0-1.75,6.516v27.438a40.091,40.091,0,0,0,.363,6.092H542.1l-31.059-34.617v24.846a9.652,9.652,0,0,0,1.153,5.55,5.449,5.449,0,0,0,4.523,1.508h1.026v1.811q-1.269,0-3.863-.121t-3.918-.118q-1.329,0-4.071.118t-4.131.121v-1.811h.842q5.429,0,5.429-7.66V751.69a5.05,5.05,0,0,0-1.658-3.918,5.537,5.537,0,0,0-3.832-1.51h-.784v-1.811c.761,0,1.917.04,3.46.121s2.7.121,3.46.121q.9,0,2.684-.121t2.684-.121" transform="translate(-424.546 -742.94)" fill="#58595b"/>
      <path id="Path_5" data-name="Path 5" d="M644.719,769.977l-1.929,6.274a43.068,43.068,0,0,0-1.329,4.7q0,2.116,4.523,2.113h.663v1.811q-4.823-.24-7.3-.239-2.171,0-6.513.239v-1.811h.36a5.218,5.218,0,0,0,5.247-3.921l9.65-27.677q.963-2.652,2.231-7.479a25.549,25.549,0,0,0,5.478-2.595,1.976,1.976,0,0,1,.484-.121.467.467,0,0,1,.421.181q.182.542.545,1.508l11.1,31.543q.723,2.171,2.234,6.152a3.915,3.915,0,0,0,3.981,2.413h.36v1.811q-5.429-.24-8.323-.239t-9.047.239v-1.811h.663q3.748,0,3.748-1.75a21.711,21.711,0,0,0-1.205-4.339l-2.353-7Zm12.426-3.379-5.55-17.065h-.127l-5.61,17.065Z" transform="translate(-493.46 -741.271)" fill="#58595b"/>
      <path id="Path_6" data-name="Path 6" d="M794.12,755.094l-1.811.121q-2.416-10.01-13.991-10.01a14.874,14.874,0,0,0-12.123,5.247,19.446,19.446,0,0,0-3.982,12.786,24.568,24.568,0,0,0,3.806,13.991A14.415,14.415,0,0,0,778.5,783.8a11.8,11.8,0,0,0,6.692-1.153v-9.831q0-3.073-4.584-3.076h-.784v-1.811q6.031.242,9.047.239,2.652,0,8.073-.239v1.811h-.784q-3.258,0-3.258,3.076v9.165l1.39.787v1.084a62.7,62.7,0,0,1-16.828,2.595,24.172,24.172,0,0,1-16.886-5.85,21.452,21.452,0,0,1-6.813-16.765,19.342,19.342,0,0,1,7.479-15.923,26.066,26.066,0,0,1,16.644-5.368,38.8,38.8,0,0,1,8.687,1.087q2.231.542,6.818,1.153a54.631,54.631,0,0,0,.724,10.31" transform="translate(-557.035 -741.95)" fill="#58595b"/>
      <path id="Path_7" data-name="Path 7" d="M888.3,746.622v33.112a4.705,4.705,0,0,0,1.689,4.339,8.692,8.692,0,0,0,4.036.663h.963v1.811q-1.508,0-4.552-.121t-4.613-.118q-1.629,0-4.945.118t-5.065.121v-1.811h.963a4,4,0,0,0,2.595-.663,5.5,5.5,0,0,0,1.208-4.221V751.021a6.14,6.14,0,0,0-.905-3.921,4.446,4.446,0,0,0-3.134-.844H875.8v-1.811q.963,0,3.889.121t4.552.121q1.629,0,4.555-.121t4.252-.121q14.17,0,14.17,11.532a11.532,11.532,0,0,1-3.252,8.473,13.124,13.124,0,0,1-8.386,3.768q-1.327.121-4.823.121v-1.825h1.266a5.918,5.918,0,0,0,5.365-2.883,13.586,13.586,0,0,0,1.75-7.418q0-9.589-9.107-9.589Z" transform="translate(-621.181 -742.94)" fill="#58595b"/>
      <path id="Path_8" data-name="Path 8" d="M982.4,769.977l-1.929,6.274a43.248,43.248,0,0,0-1.329,4.7q0,2.116,4.523,2.113h.666v1.811q-4.826-.24-7.3-.239-2.171,0-6.513.239v-1.811h.36a5.221,5.221,0,0,0,5.247-3.921l9.65-27.677q.963-2.652,2.231-7.479a25.553,25.553,0,0,0,5.478-2.595,1.984,1.984,0,0,1,.484-.121.468.468,0,0,1,.421.182q.182.542.542,1.508l11.1,31.543q.723,2.171,2.234,6.152a3.915,3.915,0,0,0,3.981,2.413h.36v1.811q-5.429-.24-8.323-.239t-9.047.239v-1.811h.663q3.748,0,3.748-1.75a21.711,21.711,0,0,0-1.205-4.339l-2.352-7Zm12.426-3.379-5.55-17.065h-.118L983.553,766.6Z" transform="translate(-670.959 -741.271)" fill="#58595b"/>
      <path id="Path_9" data-name="Path 9" d="M1102.239,749.5v31.137q0,3.018,3.618,3.379a37.8,37.8,0,0,0,7.957-.121,7.886,7.886,0,0,0,5.789-3.258,13.754,13.754,0,0,0,1.868-4.339h1.75q-.724,3.379-2.229,10.252-2.652,0-7.96-.121t-7.963-.118q-2.653,0-7.963.118t-7.957.121v-1.811h.842q4.524,0,4.523-4.036V749.692q0-3.434-4.523-3.437h-.842v-1.811q1.629,0,4.794.121t4.731.121q1.568,0,4.613-.121t4.552-.121v1.811h-1.508a6.559,6.559,0,0,0-2.883.424,2.947,2.947,0,0,0-1.205,2.834" transform="translate(-733.309 -742.94)" fill="#58595b"/>
    </g>
    <g id="Group_405" data-name="Group 405" transform="translate(-311.348 1595.302)">
      <path id="Path_10" data-name="Path 10" d="M549.089,886.634v-.677h.314q1.669,0,1.672-1.289V872.833q0-1.286-1.672-1.286h-.314v-.677c.314,0,.865,0,1.672.043s1.413.043,1.851.043,1.087,0,1.9-.043,1.384-.043,1.73-.043a6.587,6.587,0,0,1,4.036,1.038,2.989,2.989,0,0,1,1.173,2.505q0,2.915-4.111,3.659v.046a5.527,5.527,0,0,1,3.434.971,3.564,3.564,0,0,1,1.6,3.071,4,4,0,0,1-1.568,3.151,5.648,5.648,0,0,1-3.748,1.324q-.519,0-1.863-.043t-2.09-.046c-.5,0-1.217.014-2.156.046s-1.557.043-1.842.043m4.881-14.951v6.1h1.1q3.347,0,3.344-2.935a2.768,2.768,0,0,0-3.094-3.171Zm0,6.919v5.308a2.265,2.265,0,0,0,.372,1.56,2.566,2.566,0,0,0,1.66.357A3.124,3.124,0,0,0,558.4,884.8a3.588,3.588,0,0,0,.96-2.543,3.506,3.506,0,0,0-1.107-2.776,4.234,4.234,0,0,0-2.822-.879Z" transform="translate(-549.089 -870.521)" fill="#dc7236"/>
      <path id="Path_11" data-name="Path 11" d="M606.569,881.342v-8.156a1.661,1.661,0,0,0-.522-1.442,2.557,2.557,0,0,0-1.219-.2h-.271v-.677c.288,0,.83,0,1.629.043s1.442.043,1.964.043,1.124,0,1.874-.043,1.257-.043,1.514-.043v.677h-.268a2.632,2.632,0,0,0-1.245.2,1.6,1.6,0,0,0-.577,1.441v7.784q0,4.858,4.293,4.858t4.293-4.947v-7.7a1.661,1.661,0,0,0-.522-1.441,2.164,2.164,0,0,0-1.107-.2h-.453v-.677c.288,0,.758,0,1.367.043s1.067.043,1.369.043.738,0,1.32-.043,1.015-.043,1.3-.043v.677h-.473a1.694,1.694,0,0,0-.948.2,1.73,1.73,0,0,0-.5,1.441v7.208q0,6.571-6.077,6.573a8.053,8.053,0,0,1-4.991-1.289,5.169,5.169,0,0,1-1.759-4.325" transform="translate(-578.246 -870.513)" fill="#dc7236"/>
      <path id="Path_12" data-name="Path 12" d="M665.222,886.624v-.677h.317q1.672,0,1.669-1.289V872.822q0-1.286-1.669-1.286h-.317v-.677c.271,0,.8,0,1.583.043s1.369.043,1.762.043.974,0,1.793-.043,1.4-.043,1.753-.043v.677H671.8q-1.669,0-1.672,1.286v11.835q0,1.289,1.672,1.289h.317v.677c-.36,0-.954-.014-1.776-.043s-1.418-.046-1.793-.046-.977.014-1.75.046-1.3.043-1.571.043" transform="translate(-610.133 -870.51)" fill="#dc7236"/>
      <path id="Path_13" data-name="Path 13" d="M710.213,872.757v11.65c0,.755.45,1.176,1.355,1.266a14.127,14.127,0,0,0,2.984-.046,2.948,2.948,0,0,0,2.168-1.219,5.186,5.186,0,0,0,.7-1.626h.654q-.271,1.269-.836,3.84c-.66,0-1.658-.014-2.981-.043s-2.306-.046-2.981-.046-1.658.014-2.981.046-2.306.043-2.978.043v-.677h.314q1.7,0,1.7-1.514V872.82q0-1.289-1.7-1.286h-.314v-.677c.406,0,1,0,1.793.043s1.381.043,1.773.043.969,0,1.73-.043,1.329-.043,1.707-.043v.677h-.577a2.507,2.507,0,0,0-1.087.156,1.112,1.112,0,0,0-.45,1.064" transform="translate(-631.206 -870.511)" fill="#dc7236"/>
      <path id="Path_14" data-name="Path 14" d="M758.075,886.633v-.677h.314q1.669,0,1.672-1.289V872.832q0-1.286-1.672-1.286h-.314v-.677c.164,0,.675,0,1.522.043s1.548.043,2.09.043,1.2,0,2-.043,1.352-.043,1.638-.043A9.541,9.541,0,0,1,771.873,873a7.225,7.225,0,0,1,2.416,5.7,7.672,7.672,0,0,1-2.474,5.766,7.568,7.568,0,0,1-5.907,2.156q-1.606-.09-4.111-.09-.879,0-2.211.046c-.888.029-1.4.043-1.514.043m4.878-14.842v12.241a1.6,1.6,0,0,0,.654,1.537,3.928,3.928,0,0,0,1.7.245,5.294,5.294,0,0,0,4.359-2.019,7.314,7.314,0,0,0,1.465-4.653q0-7.45-6.631-7.453-.288,0-1.534.112" transform="translate(-658.942 -870.519)" fill="#dc7236"/>
      <path id="Path_15" data-name="Path 15" d="M818.924,886.624v-.677h.314q1.672,0,1.672-1.289V872.822q0-1.286-1.672-1.286h-.314v-.677c.421,0,1.294,0,2.621.043s2.324.043,3,.043,1.669,0,3.027-.043,2.272-.043,2.756-.043a33.04,33.04,0,0,0,.043,3.46l-.677.182a3.758,3.758,0,0,0-.519-1.874,2.765,2.765,0,0,0-2.237-.767H823.8v5.919h2.687a1.588,1.588,0,0,0,1.358-.542,3.11,3.11,0,0,0,.427-1.442h.677q-.066,1.309-.066,2.641,0,1.286.066,2.575l-.677.138a5.489,5.489,0,0,0-.337-1.629,1.529,1.529,0,0,0-1.427-.608H823.8v5.265a1.225,1.225,0,0,0,.833,1.288,6.879,6.879,0,0,0,1.923.179,7.688,7.688,0,0,0,3.047-.407,3.434,3.434,0,0,0,1.537-2.35l.631.159q-.522,2.1-.767,3.589-.653,0-2.823-.043t-3.252-.046c-.721,0-1.833.014-3.29.046s-2.358.043-2.721.043" transform="translate(-690.925 -870.51)" fill="#dc7236"/>
      <path id="Path_16" data-name="Path 16" d="M873.979,884.728V873.254a1.694,1.694,0,0,0-.542-1.47,1.8,1.8,0,0,0-1.061-.248h-.407v-.677c.179,0,.681,0,1.5.043s1.488.043,2,.043c.464,0,1.093,0,1.874-.043s1.369-.043,1.759-.043q5.377,0,5.377,3.976a4.189,4.189,0,0,1-3.137,3.973l3.863,5.78a3.262,3.262,0,0,0,.914.975,3.309,3.309,0,0,0,1.277.383v.677c-.239,0-.605-.015-1.1-.043s-.865-.046-1.116-.046-.577.014-1.052.046-.833.043-1.073.043a65.516,65.516,0,0,1-4.7-7.32h-1.488v4.835a1.807,1.807,0,0,0,.539,1.557,2.465,2.465,0,0,0,1.309.248h.41v.677q-.636,0-1.932-.043c-.865-.029-1.519-.046-1.955-.046-.36,0-.9.014-1.626.046s-1.274.043-1.646.043v-.677h.406c1.067,0,1.6-.409,1.6-1.219m2.883-12.974v6.732h1.1a3.731,3.731,0,0,0,2.621-.8,3.6,3.6,0,0,0,.865-2.724,3.077,3.077,0,0,0-3.3-3.3l-1.286.09" transform="translate(-718.808 -870.512)" fill="#dc7236"/>
      <path id="Path_17" data-name="Path 17" d="M939.75,873.717l-.634.112a3.681,3.681,0,0,0-.813-1.986,2.329,2.329,0,0,0-1.851-.88,2.73,2.73,0,0,0-2.056.744,2.882,2.882,0,0,0-.723,2.1,2.987,2.987,0,0,0,1.761,2.552q1.623.9,3.252,1.828a4.375,4.375,0,0,1,1.761,3.658,4.3,4.3,0,0,1-1.646,3.546,5.969,5.969,0,0,1-3.817,1.2,8.046,8.046,0,0,1-3.593-1.018c-.031-.395-.089-.969-.182-1.729s-.158-1.329-.2-1.707l.634-.135a4.822,4.822,0,0,0,1.041,2.508,3.115,3.115,0,0,0,2.462,1.081,2.882,2.882,0,0,0,1.986-.7,2.379,2.379,0,0,0,.79-1.874,3.112,3.112,0,0,0-1.73-2.69l-3.206-1.854a4.844,4.844,0,0,1-.34-7.078,5.163,5.163,0,0,1,3.615-1.254q.631,0,3.252.34a25.925,25.925,0,0,0,.228,3.229" transform="translate(-749.841 -870.139)" fill="#dc7236"/>
    </g>
  </g>
</svg>
