<?xml version="1.0" encoding="utf-8"?>
<!-- Generator: Adobe Illustrator 24.0.1, SVG Export Plug-In . SVG Version: 6.00 Build 0)  -->
<svg version="1.1" id="Layer_1" xmlns="http://www.w3.org/2000/svg" xmlns:xlink="http://www.w3.org/1999/xlink" x="0px" y="0px"
	 viewBox="0 0 20 20" style="enable-background:new 0 0 20 20;" xml:space="preserve">
<style type="text/css">
	.st0{opacity:0.77;}
	.st1{fill:#6B6B6B;}
</style>
<g id="ELEMENTS" transform="translate(-0.003 0)" class="st0">
	<path id="Path_5" class="st1" d="M20,3.6c-0.6,0.3-1.3,0.5-2,0.6c0.8-0.5,1.4-1.3,1.7-2.2c-0.8,0.4-1.7,0.7-2.5,0.9
		c-3-3-8-0.1-7.3,3.8C6.3,6.4,3.7,4.6,1.3,2.5c-1,1.8-0.5,4.1,1.2,5.4c0,0.2-1.3-0.5-1.8-0.4c0,1.9,1.3,3.6,3.2,4
		c-4-0.3,0.7,3.2,2.1,3c-1.5,1.4-4,1.8-6,1.6c0.1,0.3,0.5,0.4,0.8,0.5C8.7,21.2,19,15.1,18.2,5.9C18.6,5.3,20.2,4.4,20,3.6z"/>
</g>
</svg>
