<?xml version="1.0" encoding="utf-8"?>
<!-- Generator: Adobe Illustrator 24.0.1, SVG Export Plug-In . SVG Version: 6.00 Build 0)  -->
<svg version="1.1" id="Layer_1" xmlns="http://www.w3.org/2000/svg" xmlns:xlink="http://www.w3.org/1999/xlink" x="0px" y="0px"
	 viewBox="0 0 22 16.4" style="enable-background:new 0 0 22 16.4;" xml:space="preserve">
<style type="text/css">
	.st0{opacity:0.77;}
	.st1{fill:#6B6B6B;}
</style>
<g id="ELEMENTS" transform="translate(0)" class="st0">
	<path id="Path_7" class="st1" d="M22,5.3c0-2.7-2.2-4.8-4.8-4.8c0,0,0,0,0,0H4.8C2.2,0.5,0,2.7,0,5.3l0,0v5.7
		c0,2.7,2.2,4.8,4.8,4.8c0,0,0,0,0,0h12.3c2.7,0,4.8-2.2,4.8-4.8v0L22,5.3z M14.7,8.6l-5.5,2.7c-0.2,0.1-1,0-1-0.3V5.5
		c0-0.3,0.8-0.4,1-0.3l5.3,2.9C14.7,8.2,15,8.5,14.7,8.6L14.7,8.6z"/>
</g>
</svg>
